<svg width="76" height="60" viewBox="0 0 76 60" fill="none" xmlns="http://www.w3.org/2000/svg">
<path opacity="0.996" fill-rule="evenodd" clip-rule="evenodd" d="M75.5 38.1641C75.5 41.0834 75.5 44.0026 75.5 46.9219C75.3967 47.745 75.2746 48.5862 75.1338 49.4453C69.4272 53.7346 63.1527 56.9508 56.3105 59.0938C56.069 58.9233 55.8493 58.7255 55.6514 58.5C54.3387 56.5742 53.1424 54.5703 52.0625 52.4883C52.1426 52.351 52.2402 52.2273 52.3555 52.1172C54.3352 51.3615 56.2395 50.4461 58.0684 49.3711C58.2077 49.2645 58.232 49.1409 58.1416 49C57.7468 48.6743 57.3318 48.3775 56.8965 48.1094C44.301 53.8487 31.7034 53.8487 19.1035 48.1094C18.6682 48.3775 18.2532 48.6743 17.8584 49C17.768 49.1409 17.7923 49.2645 17.9316 49.3711C19.7973 50.4897 21.7503 51.405 23.791 52.1172C23.5994 52.9523 23.282 53.7439 22.8389 54.4922C21.9317 56.1351 20.8818 57.669 19.6895 59.0938C12.8473 56.9508 6.57286 53.7346 0.866211 49.4453C0.718167 48.6384 0.596096 47.8466 0.5 47.0703C0.5 44.1016 0.5 41.1328 0.5 38.1641C1.43094 26.3284 5.23953 15.542 11.9258 5.80469C16.8443 3.5071 21.9712 1.87429 27.3066 0.90625C27.4499 0.97701 27.5719 1.07596 27.6729 1.20312C28.2994 2.52269 28.9585 3.80915 29.6504 5.0625C35.2156 4.09225 40.782 4.09225 46.3496 5.0625C47.0415 3.80915 47.7006 2.52269 48.3271 1.20312C48.4281 1.07596 48.5501 0.97701 48.6934 0.90625C54.0288 1.87429 59.1557 3.5071 64.0742 5.80469C70.7589 15.537 74.5675 26.3234 75.5 38.1641ZM25.1094 25.25C28.208 25.3477 30.3809 26.832 31.6279 29.7031C33.0143 33.8499 31.9646 37.1897 28.4785 39.7227C24.3663 41.2403 21.3633 39.9786 19.4697 35.9375C18.2634 32.3412 19.0203 29.2486 21.7402 26.6602C22.7747 25.937 23.8978 25.467 25.1094 25.25ZM50.1582 25.25C53.3369 25.4298 55.5099 27.013 56.6768 30C57.8196 33.8975 56.8187 37.0889 53.6738 39.5742C50.6831 41.0844 48.0219 40.6145 45.6904 38.1641C43.7962 35.6409 43.3568 32.87 44.3721 29.8516C45.4376 27.1598 47.3664 25.626 50.1582 25.25Z" fill="#D5B815"/>
</svg>
