<svg width="40" height="40" viewBox="0 0 40 40" fill="none" xmlns="http://www.w3.org/2000/svg">
<g clip-path="url(#clip0_15_122)">
<path opacity="0.999" fill-rule="evenodd" clip-rule="evenodd" d="M4.10156 -0.0390625C14.6745 -0.0390625 25.2474 -0.0390625 35.8203 -0.0390625C38.0599 0.481771 39.4401 1.86198 39.9609 4.10156C39.9609 14.6745 39.9609 25.2474 39.9609 35.8203C39.4401 38.0599 38.0599 39.4401 35.8203 39.9609C33.0338 39.9609 30.2474 39.9609 27.4609 39.9609C27.4609 35.3776 27.4609 30.7943 27.4609 26.2109C28.712 26.237 29.962 26.2109 31.2109 26.1328C32.037 24.0841 32.8703 22.0398 33.7109 20C31.6277 19.9609 29.5445 19.9479 27.4609 19.9609C27.4479 18.1378 27.4609 16.3149 27.5 14.4922C27.6568 14.0752 27.9563 13.8278 28.3984 13.75C29.7523 13.7109 31.1065 13.6979 32.4609 13.7109C32.4609 11.6276 32.4609 9.5443 32.4609 7.46094C30.4816 7.44792 28.5024 7.46094 26.5234 7.5C23.4654 8.00594 21.3951 9.71164 20.3125 12.6172C20.2084 13.0859 20.1041 13.5547 20 14.0234C19.9609 16.0024 19.9479 17.9816 19.9609 19.9609C18.2943 19.9609 16.6276 19.9609 14.9609 19.9609C14.9609 22.0443 14.9609 24.1276 14.9609 26.2109C16.6276 26.2109 18.2943 26.2109 19.9609 26.2109C19.9609 30.7943 19.9609 35.3776 19.9609 39.9609C14.6745 39.9609 9.38805 39.9609 4.10156 39.9609C1.86198 39.4401 0.481771 38.0599 -0.0390625 35.8203C-0.0390625 25.2474 -0.0390625 14.6745 -0.0390625 4.10156C0.481771 1.86198 1.86198 0.481771 4.10156 -0.0390625Z" fill="#D5B815"/>
<path fill-rule="evenodd" clip-rule="evenodd" d="M27.4609 39.9609C24.9609 39.9609 22.4609 39.9609 19.9609 39.9609C19.9609 35.3776 19.9609 30.7943 19.9609 26.2109C18.2943 26.2109 16.6276 26.2109 14.9609 26.2109C14.9609 24.1276 14.9609 22.0443 14.9609 19.9609C16.6276 19.9609 18.2943 19.9609 19.9609 19.9609C19.9479 17.9816 19.9609 16.0024 20 14.0234C20.1041 13.5547 20.2084 13.0859 20.3125 12.6172C21.3951 9.71164 23.4654 8.00594 26.5234 7.5C28.5024 7.46094 30.4816 7.44792 32.4609 7.46094C32.4609 9.54429 32.4609 11.6276 32.4609 13.7109C31.1065 13.6979 29.7523 13.7109 28.3984 13.75C27.9563 13.8278 27.6568 14.0752 27.5 14.4922C27.4609 16.3149 27.4479 18.1378 27.4609 19.9609C29.5445 19.9479 31.6277 19.9609 33.7109 20C32.8703 22.0398 32.037 24.0841 31.2109 26.1328C29.962 26.2109 28.712 26.237 27.4609 26.2109C27.4609 30.7943 27.4609 35.3776 27.4609 39.9609Z" fill="#F9F9F9"/>
</g>
<defs>
<clipPath id="clip0_15_122">
<rect width="40" height="40" fill="white"/>
</clipPath>
</defs>
</svg>
