<svg width="40" height="40" viewBox="0 0 40 40" fill="none" xmlns="http://www.w3.org/2000/svg">
<g clip-path="url(#clip0_16_465)">
<path opacity="0.994" fill-rule="evenodd" clip-rule="evenodd" d="M4.17969 -0.0390625C14.7005 -0.0390625 25.2213 -0.0390625 35.7422 -0.0390625C38.0078 0.507812 39.4141 1.91406 39.9609 4.17969C39.9609 14.7005 39.9609 25.2213 39.9609 35.7422C39.4141 38.0078 38.0078 39.4141 35.7422 39.9609C25.2213 39.9609 14.7005 39.9609 4.17969 39.9609C1.91406 39.4141 0.507812 38.0078 -0.0390625 35.7422C-0.0390625 25.2213 -0.0390625 14.7005 -0.0390625 4.17969C0.507812 1.91406 1.91406 0.507812 4.17969 -0.0390625ZM29.1016 4.41406C30.6122 4.40105 32.1227 4.41406 33.6328 4.45312C34.6875 4.57031 35.2734 5.15625 35.3906 6.21094C35.4427 7.64323 35.4427 9.07555 35.3906 10.5078C35.2734 11.5625 34.6875 12.1484 33.6328 12.2656C32.1224 12.3177 30.612 12.3177 29.1016 12.2656C28.0469 12.1484 27.4609 11.5625 27.3438 10.5078C27.2713 8.91633 27.2974 7.32779 27.4219 5.74219C27.6988 4.93041 28.2587 4.4877 29.1016 4.41406ZM19.1016 12.1484C23.0212 11.9652 25.8207 13.6319 27.5 17.1484C28.704 21.22 27.5191 24.3841 23.9453 26.6406C21.5702 27.8184 19.1483 27.9226 16.6797 26.9531C13.0839 25.1394 11.5866 22.2358 12.1875 18.2422C12.7636 15.9992 14.0527 14.2934 16.0547 13.125C17.0223 12.6157 18.038 12.2902 19.1016 12.1484ZM4.41406 16.9141C5.61198 16.9141 6.8099 16.9141 8.00781 16.9141C6.63229 23.1849 8.71562 27.9115 14.2578 31.0938C17.8691 32.7228 21.5149 32.8009 25.1953 31.3281C30.1988 28.873 32.6077 24.8496 32.4219 19.2578C32.3374 18.4643 32.1941 17.683 31.9922 16.9141C33.138 16.9141 34.2838 16.9141 35.4297 16.9141C35.4427 22.513 35.4297 28.112 35.3906 33.7109C35.3269 34.7122 34.793 35.2461 33.7891 35.3125C24.5443 35.3646 15.2995 35.3646 6.05469 35.3125C5.05209 35.2474 4.51823 34.7135 4.45312 33.7109C4.41406 28.112 4.40104 22.513 4.41406 16.9141Z" fill="#D5B815"/>
</g>
<defs>
<clipPath id="clip0_16_465">
<rect width="40" height="40" fill="white"/>
</clipPath>
</defs>
</svg>
