<svg width="40" height="40" viewBox="0 0 40 40" fill="none" xmlns="http://www.w3.org/2000/svg">
<g clip-path="url(#clip0_16_460)">
<path opacity="0.994" fill-rule="evenodd" clip-rule="evenodd" d="M3.47656 -0.0390625C14.4662 -0.0390625 25.4557 -0.0390625 36.4453 -0.0390625C38.3203 0.429688 39.4922 1.60156 39.9609 3.47656C39.9609 14.4662 39.9609 25.4557 39.9609 36.4453C39.4922 38.3203 38.3203 39.4922 36.4453 39.9609C25.4557 39.9609 14.4662 39.9609 3.47656 39.9609C1.60156 39.4922 0.429688 38.3203 -0.0390625 36.4453C-0.0390625 25.4557 -0.0390625 14.4662 -0.0390625 3.47656C0.429688 1.60156 1.60156 0.429688 3.47656 -0.0390625ZM6.44531 6.13281C9.08836 6.04186 11.7446 6.02884 14.4141 6.09375C16.6712 9.31445 18.8977 12.5566 21.0938 15.8203C21.2195 15.9946 21.3627 16.1509 21.5234 16.2891C24.4401 12.9037 27.3568 9.5182 30.2734 6.13281C31.0287 6.02865 31.7838 6.02865 32.5391 6.13281C29.1901 10.0155 25.8567 13.9087 22.5391 17.8125C26.138 23.1694 29.7837 28.4949 33.4766 33.7891C30.8207 33.8802 28.1645 33.8932 25.5078 33.8281C23.0112 30.2281 20.5242 26.6214 18.0469 23.0078C14.9072 26.5927 11.7952 30.1995 8.71094 33.8281C7.9557 33.8802 7.20052 33.8802 6.44531 33.8281C9.99125 29.7356 13.5069 25.621 16.9922 21.4844C13.4884 16.3541 9.97281 11.2369 6.44531 6.13281Z" fill="#D5B815"/>
<path opacity="0.962" fill-rule="evenodd" clip-rule="evenodd" d="M9.57031 7.77343C10.8205 7.76042 12.0705 7.77344 13.3203 7.8125C19.007 15.9177 24.6841 24.0296 30.3516 32.1484C29.1023 32.2395 27.8523 32.2526 26.6016 32.1875C26.5365 32.1224 26.4713 32.0573 26.4062 31.9922C20.7751 23.9273 15.1631 15.8543 9.57031 7.77343Z" fill="#D5B815"/>
</g>
<defs>
<clipPath id="clip0_16_460">
<rect width="40" height="40" fill="white"/>
</clipPath>
</defs>
</svg>
