<?xml version="1.0" encoding="UTF-8"?>
<!DOCTYPE svg PUBLIC "-//W3C//DTD SVG 1.1//EN" "http://www.w3.org/Graphics/SVG/1.1/DTD/svg11.dtd">
<svg xmlns="http://www.w3.org/2000/svg" version="1.1" width="512px" height="512px" style="shape-rendering:geometricPrecision; text-rendering:geometricPrecision; image-rendering:optimizeQuality; fill-rule:evenodd; clip-rule:evenodd" xmlns:xlink="http://www.w3.org/1999/xlink">
<g><path style="opacity:0.999" fill="#50abf1" d="M 57.5,-0.5 C 189.5,-0.5 321.5,-0.5 453.5,-0.5C 485.167,6.5 504.5,25.8333 511.5,57.5C 511.5,189.5 511.5,321.5 511.5,453.5C 504.5,485.167 485.167,504.5 453.5,511.5C 321.5,511.5 189.5,511.5 57.5,511.5C 25.8333,504.5 6.5,485.167 -0.5,453.5C -0.5,321.5 -0.5,189.5 -0.5,57.5C 6.5,25.8333 25.8333,6.5 57.5,-0.5 Z"/></g>
<g><path style="opacity:1" fill="#fefefe" d="M 302.5,122.5 C 324.978,120.091 344.645,126.258 361.5,141C 375.485,139.894 388.485,135.561 400.5,128C 402.167,127.333 403.833,127.333 405.5,128C 406.335,131.563 405.835,135.063 404,138.5C 400.341,146.486 395.508,153.653 389.5,160C 396.841,158.167 404.174,156.001 411.5,153.5C 413.955,153.112 415.288,154.112 415.5,156.5C 411.617,163.225 407.117,169.559 402,175.5C 396.333,180.833 390.667,186.167 385,191.5C 383.545,230.314 373.212,266.647 354,300.5C 316.1,358.794 262.1,388.128 192,388.5C 158.508,388.326 127.342,379.826 98.5,363C 94.2713,359.157 94.6046,355.823 99.5,353C 126.228,354.202 151.228,348.202 174.5,335C 176.061,334.059 177.395,332.892 178.5,331.5C 151.963,325.296 134.296,309.296 125.5,283.5C 125.775,281.391 126.942,280.058 129,279.5C 133.124,280.572 137.29,280.738 141.5,280C 115.737,266.321 102.904,244.821 103,215.5C 103.739,214.426 104.739,213.759 106,213.5C 111.327,216.165 116.827,217.998 122.5,219C 106.688,201.553 100.522,181.053 104,157.5C 105.617,149.308 108.784,141.808 113.5,135C 114.833,134.333 116.167,134.333 117.5,135C 148.648,173.164 188.815,195.331 238,201.5C 240.424,201.47 242.757,201.137 245,200.5C 243.527,159.061 262.693,133.061 302.5,122.5 Z"/></g>
</svg>
